<?xml version="1.0" encoding="UTF-8" standalone="no"?>
<svg
   xmlns:dc="http://purl.org/dc/elements/1.1/"
   xmlns:cc="http://creativecommons.org/ns#"
   xmlns:rdf="http://www.w3.org/1999/02/22-rdf-syntax-ns#"
   xmlns:svg="http://www.w3.org/2000/svg"
   xmlns="http://www.w3.org/2000/svg"
   xmlns:sodipodi="http://sodipodi.sourceforge.net/DTD/sodipodi-0.dtd"
   xmlns:inkscape="http://www.inkscape.org/namespaces/inkscape"
   width="256.13098mm"
   height="38.627491mm"
   viewBox="0 0 256.13098 38.627491"
   version="1.1"
   id="svg8"
   inkscape:version="1.0.1 (3bc2e813f5, 2020-09-07)"
   sodipodi:docname="logo.svg">
  <defs
     id="defs2" />
  <sodipodi:namedview
     id="base"
     pagecolor="#ffffff"
     bordercolor="#666666"
     borderopacity="1.0"
     inkscape:pageopacity="0.0"
     inkscape:pageshadow="2"
     inkscape:zoom="0.49497474"
     inkscape:cx="171.30593"
     inkscape:cy="400.27783"
     inkscape:document-units="mm"
     inkscape:current-layer="g863"
     inkscape:document-rotation="0"
     showgrid="false"
     inkscape:window-width="1920"
     inkscape:window-height="1017"
     inkscape:window-x="-8"
     inkscape:window-y="-8"
     inkscape:window-maximized="1" />
  <metadata
     id="metadata5">
    <rdf:RDF>
      <cc:Work
         rdf:about="">
        <dc:format>image/svg+xml</dc:format>
        <dc:type
           rdf:resource="http://purl.org/dc/dcmitype/StillImage" />
        <dc:title />
      </cc:Work>
    </rdf:RDF>
  </metadata>
  <g
     inkscape:label="Layer 1"
     inkscape:groupmode="layer"
     id="layer1"
     transform="translate(413.08713,-107.76907)">
    <g
       id="g855">
      <g
         id="g863">
        <path
           d="m -409.84434,137.50345 c 0,6.23992 3.48846,8.45091 8.69658,8.45091 h 4.32372 v -5.79772 h -3.19366 c -2.16186,0 -2.89886,-0.78613 -2.89886,-2.60406 v -13.16769 h 6.09252 v -5.65032 h -6.09252 v -6.73125 h -6.92778 v 6.73125 h -3.24279 v 5.65032 h 3.24279 z"
           style="font-style:normal;font-variant:normal;font-weight:600;font-stretch:normal;font-size:49.1332px;line-height:1.25;font-family:Poppins;-inkscape-font-specification:'Poppins Semi-Bold';letter-spacing:0px;word-spacing:0px;fill:#10e97e;fill-opacity:1;stroke-width:1.22833"
           id="path906" />
        <path
           d="m -384.98301,132.3936 c 0,-5.25726 2.45666,-6.82952 6.53472,-6.82952 h 1.81793 v -7.22258 c -3.78326,0 -6.63299,1.81793 -8.35265,4.61852 v -4.22545 h -6.87865 v 27.21979 h 6.87865 z"
           style="font-style:normal;font-variant:normal;font-weight:600;font-stretch:normal;font-size:49.1332px;line-height:1.25;font-family:Poppins;-inkscape-font-specification:'Poppins Semi-Bold';letter-spacing:0px;word-spacing:0px;fill:#10e97e;fill-opacity:1;stroke-width:1.22833"
           id="path908" />
        <path
           d="m -373.78067,132.2462 c 0,8.50004 5.50292,14.15036 12.38156,14.15036 4.32373,0 7.41912,-2.06359 9.04051,-4.42199 v 3.97979 h 6.92778 v -27.21979 h -6.92778 v 3.88152 c -1.62139,-2.26013 -4.61852,-4.32372 -8.99137,-4.32372 -6.92778,0 -12.4307,5.45378 -12.4307,13.95383 z m 21.42207,0.0983 c 0,5.15899 -3.43932,8.00872 -7.22258,8.00872 -3.68499,0 -7.17345,-2.948 -7.17345,-8.10698 0,-5.15899 3.48846,-7.91045 7.17345,-7.91045 3.78326,0 7.22258,2.84973 7.22258,8.00871 z"
           style="font-style:normal;font-variant:normal;font-weight:600;font-stretch:normal;font-size:49.1332px;line-height:1.25;font-family:Poppins;-inkscape-font-specification:'Poppins Semi-Bold';letter-spacing:0px;word-spacing:0px;fill:#10e97e;fill-opacity:1;stroke-width:1.22833"
           id="path910" />
        <path
           d="m -340.46839,132.2462 c 0,8.50004 5.50292,14.15036 12.4307,14.15036 4.27459,0 7.32085,-1.96533 8.94225,-4.47112 v 4.02892 h 6.97691 v -36.35857 h -6.97691 v 12.92203 c -1.86707,-2.55492 -5.30639,-4.22545 -8.89311,-4.22545 -6.97692,0 -12.47984,5.45378 -12.47984,13.95383 z m 21.42208,0.0983 c 0,5.15899 -3.43933,8.00872 -7.22258,8.00872 -3.68499,0 -7.17345,-2.948 -7.17345,-8.10698 0,-5.15899 3.48846,-7.91045 7.17345,-7.91045 3.78325,0 7.22258,2.84973 7.22258,8.00871 z"
           style="font-style:normal;font-variant:normal;font-weight:600;font-stretch:normal;font-size:49.1332px;line-height:1.25;font-family:Poppins;-inkscape-font-specification:'Poppins Semi-Bold';letter-spacing:0px;word-spacing:0px;fill:#10e97e;fill-opacity:1;stroke-width:1.22833"
           id="path912" />
        <path
           d="m -293.6936,123.94269 c 3.53759,0 6.38731,2.26012 6.48558,5.84685 h -12.92203 c 0.54046,-3.73413 3.14452,-5.84685 6.43645,-5.84685 z m 12.92203,13.46249 h -7.41911 c -0.8844,1.81793 -2.5058,3.29193 -5.45379,3.29193 -3.43932,0 -6.19078,-2.26013 -6.53472,-6.28905 h 19.89895 c 0.1474,-0.8844 0.19653,-1.7688 0.19653,-2.65319 0,-8.10698 -5.55205,-13.4625 -13.41336,-13.4625 -8.05785,0 -13.65903,5.45378 -13.65903,14.05209 0,8.54918 5.74858,14.0521 13.65903,14.0521 6.73125,0 11.2515,-3.97979 12.7255,-8.99138 z"
           style="font-style:normal;font-variant:normal;font-weight:600;font-stretch:normal;font-size:49.1332px;line-height:1.25;font-family:Poppins;-inkscape-font-specification:'Poppins Semi-Bold';letter-spacing:0px;word-spacing:0px;fill:#10e97e;fill-opacity:1;stroke-width:1.22833"
           id="path914" />
        <path
           d="m -274.33518,145.95436 h 6.97691 v -21.56947 h 4.76592 v -5.65032 h -4.76592 v -1.13007 c 0,-3.04625 1.13007,-4.12719 4.47112,-4.02892 v -5.79772 c -7.66478,-0.19653 -11.44803,2.89886 -11.44803,9.58098 v 1.37573 h -3.09539 v 5.65032 h 3.09539 z"
           style="font-style:normal;font-variant:normal;font-weight:600;font-stretch:normal;font-size:49.1332px;line-height:1.25;font-family:Poppins;-inkscape-font-specification:'Poppins Semi-Bold';letter-spacing:0px;word-spacing:0px;fill:#10e97e;fill-opacity:1;stroke-width:1.22833"
           id="path916" />
        <path
           d="m -246.42757,123.94269 c 3.53759,0 6.38732,2.26012 6.48559,5.84685 h -12.92204 c 0.54047,-3.73413 3.14453,-5.84685 6.43645,-5.84685 z m 12.92204,13.46249 h -7.41912 c -0.8844,1.81793 -2.50579,3.29193 -5.45378,3.29193 -3.43933,0 -6.19079,-2.26013 -6.53472,-6.28905 h 19.89895 c 0.1474,-0.8844 0.19653,-1.7688 0.19653,-2.65319 0,-8.10698 -5.55205,-13.4625 -13.41336,-13.4625 -8.05785,0 -13.65903,5.45378 -13.65903,14.05209 0,8.54918 5.74858,14.0521 13.65903,14.0521 6.73124,0 11.2515,-3.97979 12.7255,-8.99138 z"
           style="font-style:normal;font-variant:normal;font-weight:600;font-stretch:normal;font-size:49.1332px;line-height:1.25;font-family:Poppins;-inkscape-font-specification:'Poppins Semi-Bold';letter-spacing:0px;word-spacing:0px;fill:#10e97e;fill-opacity:1;stroke-width:1.22833"
           id="path918" />
        <path
           d="m -216.11244,123.94269 c 3.53759,0 6.38731,2.26012 6.48558,5.84685 h -12.92203 c 0.54046,-3.73413 3.14452,-5.84685 6.43645,-5.84685 z m 12.92203,13.46249 h -7.41911 c -0.8844,1.81793 -2.5058,3.29193 -5.45379,3.29193 -3.43932,0 -6.19078,-2.26013 -6.53471,-6.28905 h 19.89894 c 0.1474,-0.8844 0.19653,-1.7688 0.19653,-2.65319 0,-8.10698 -5.55205,-13.4625 -13.41336,-13.4625 -8.05784,0 -13.65903,5.45378 -13.65903,14.05209 0,8.54918 5.74859,14.0521 13.65903,14.0521 6.73125,0 11.2515,-3.97979 12.7255,-8.99138 z"
           style="font-style:normal;font-variant:normal;font-weight:600;font-stretch:normal;font-size:49.1332px;line-height:1.25;font-family:Poppins;-inkscape-font-specification:'Poppins Semi-Bold';letter-spacing:0px;word-spacing:0px;fill:#10e97e;fill-opacity:1;stroke-width:1.22833"
           id="path920" />
        <path
           d="m -199.25981,132.2462 c 0,8.50004 5.50291,14.15036 12.4307,14.15036 4.27458,0 7.32084,-1.96533 8.94224,-4.47112 v 4.02892 h 6.97691 v -36.35857 h -6.97691 v 12.92203 c -1.86706,-2.55492 -5.30639,-4.22545 -8.89311,-4.22545 -6.97692,0 -12.47983,5.45378 -12.47983,13.95383 z m 21.42207,0.0983 c 0,5.15899 -3.43932,8.00872 -7.22258,8.00872 -3.68499,0 -7.17345,-2.948 -7.17345,-8.10698 0,-5.15899 3.48846,-7.91045 7.17345,-7.91045 3.78326,0 7.22258,2.84973 7.22258,8.00871 z"
           style="font-style:normal;font-variant:normal;font-weight:600;font-stretch:normal;font-size:49.1332px;line-height:1.25;font-family:Poppins;-inkscape-font-specification:'Poppins Semi-Bold';letter-spacing:0px;word-spacing:0px;fill:#10e97e;fill-opacity:1;stroke-width:1.22833"
           id="path922" />
        <path
           d="m -156.95615,142.26937 c 0,-2.26013 -1.7688,-4.02892 -4.17632,-4.02892 -2.5058,0 -4.27459,1.76879 -4.27459,4.02892 0,2.26013 1.76879,4.02892 4.27459,4.02892 2.40752,0 4.17632,-1.76879 4.17632,-4.02892 z"
           style="font-style:normal;font-variant:normal;font-weight:600;font-stretch:normal;font-size:49.1332px;line-height:1.25;font-family:Poppins;-inkscape-font-specification:'Poppins Semi-Bold';letter-spacing:0px;word-spacing:0px;fill:#ffffff;fill-opacity:1;stroke-width:1.22833"
           id="path924" />
      </g>
    </g>
  </g>
</svg>
